<svg id="Layer_1" data-name="Layer 1" xmlns="http://www.w3.org/2000/svg" viewBox="0 0 202 50.39"><defs><style>.cls-1{fill:#e1677b;}.cls-2{fill:none;stroke:#4d4b4c;stroke-miterlimit:10;}.cls-3{fill:#4d4b4c;}</style></defs><title>html-element</title><path class="cls-1" d="M55.44,91.64l4.48-3v0.95L56.3,92v0l3.61,2.44v0.95l-4.48-3V91.64Z" transform="translate(-19.42 -48.17)"/><path class="cls-1" d="M63.3,96.49v2h-1V90.17h0.82l0.08,0.74h0a3.61,3.61,0,0,1,.94-0.64A2.5,2.5,0,0,1,65.27,90a2.43,2.43,0,0,1,1,.21,2.05,2.05,0,0,1,.76.6,2.71,2.71,0,0,1,.46.94A4.49,4.49,0,0,1,67.68,93a3.79,3.79,0,0,1-.22,1.33,3.07,3.07,0,0,1-.58,1,2.45,2.45,0,0,1-.85.62,2.48,2.48,0,0,1-1,.21,2.3,2.3,0,0,1-.88-0.2,3,3,0,0,1-.87-0.56Zm0-1.86a2.71,2.71,0,0,0,.84.53,2.14,2.14,0,0,0,.72.16,1.6,1.6,0,0,0,1.3-.61,2.61,2.61,0,0,0,.5-1.7,3.72,3.72,0,0,0-.1-0.88,2,2,0,0,0-.29-0.68A1.36,1.36,0,0,0,65.76,91,1.65,1.65,0,0,0,65,90.85a1.91,1.91,0,0,0-.82.21,3.32,3.32,0,0,0-.89.67v2.9Z" transform="translate(-19.42 -48.17)"/><path class="cls-1" d="M74.16,92.39l-4.48,3V94.48L73.3,92v0l-3.61-2.44V88.61l4.48,3v0.74Z" transform="translate(-19.42 -48.17)"/><path class="cls-1" d="M76.55,88.13h1v3.3h3.29v-3.3h1V96h-1V92.29H77.56V96h-1V88.13Z" transform="translate(-19.42 -48.17)"/><path class="cls-1" d="M83.63,93.1a3.16,3.16,0,0,1,.25-1.29,3,3,0,0,1,.67-1,2.89,2.89,0,0,1,.95-0.61,3.1,3.1,0,0,1,2.21,0,2.34,2.34,0,0,1,.83.56,2.42,2.42,0,0,1,.52.86,3.31,3.31,0,0,1,.18,1.12c0,0.1,0,.21,0,0.31a1.51,1.51,0,0,1,0,.26H84.65a2.08,2.08,0,0,0,.19.84,2,2,0,0,0,.47.64,2.07,2.07,0,0,0,.7.41,2.6,2.6,0,0,0,.88.14,2.94,2.94,0,0,0,.94-0.14,4,4,0,0,0,.83-0.4L89,95.46a5.14,5.14,0,0,1-1,.48,3.63,3.63,0,0,1-1.26.2,3.48,3.48,0,0,1-1.22-.21,3,3,0,0,1-1-.6,2.77,2.77,0,0,1-.67-1A3.18,3.18,0,0,1,83.63,93.1Zm4.7-.48a1.85,1.85,0,0,0-.46-1.34,1.69,1.69,0,0,0-1.27-.47,2,2,0,0,0-.69.12,1.84,1.84,0,0,0-.59.35,2,2,0,0,0-.44.57,2.28,2.28,0,0,0-.24.77h3.7Z" transform="translate(-19.42 -48.17)"/><path class="cls-1" d="M91,87.46h3v6.66a1.21,1.21,0,0,0,.31.93,1.18,1.18,0,0,0,.83.28,2.78,2.78,0,0,0,1.1-.28l0.25,0.74L95.7,96a3,3,0,0,1-.83.1,1.84,1.84,0,0,1-1.42-.53A2.25,2.25,0,0,1,93,94V88.26H91v-0.8Z" transform="translate(-19.42 -48.17)"/><path class="cls-1" d="M98.17,87.46h3v6.66a1.21,1.21,0,0,0,.31.93,1.18,1.18,0,0,0,.83.28,2.78,2.78,0,0,0,1.1-.28l0.25,0.74L102.9,96a3,3,0,0,1-.83.1,1.84,1.84,0,0,1-1.42-.53,2.25,2.25,0,0,1-.49-1.57V88.26h-2v-0.8Z" transform="translate(-19.42 -48.17)"/><path class="cls-1" d="M105.12,93.1a3.4,3.4,0,0,1,.23-1.3,2.9,2.9,0,0,1,.63-1,2.65,2.65,0,0,1,.92-0.6,3.06,3.06,0,0,1,2.2,0,2.65,2.65,0,0,1,.92.6,2.91,2.91,0,0,1,.63,1,3.41,3.41,0,0,1,.23,1.3,3.37,3.37,0,0,1-.23,1.29,2.85,2.85,0,0,1-.63,1,2.7,2.7,0,0,1-.92.59,3.07,3.07,0,0,1-2.2,0,2.69,2.69,0,0,1-.92-0.59,2.83,2.83,0,0,1-.63-1A3.36,3.36,0,0,1,105.12,93.1Zm1,0a2.94,2.94,0,0,0,.13.91,2.07,2.07,0,0,0,.38.7,1.72,1.72,0,0,0,.59.46,1.87,1.87,0,0,0,1.52,0,1.72,1.72,0,0,0,.59-0.46,2.09,2.09,0,0,0,.38-0.7,3,3,0,0,0,.13-0.91,3,3,0,0,0-.13-0.92,2.15,2.15,0,0,0-.38-0.71,1.69,1.69,0,0,0-.59-0.46,1.87,1.87,0,0,0-1.52,0,1.69,1.69,0,0,0-.59.46,2.13,2.13,0,0,0-.38.71A3,3,0,0,0,106.14,93.1Z" transform="translate(-19.42 -48.17)"/><path class="cls-1" d="M114,97.93a2.91,2.91,0,0,0,1.12-.81,2,2,0,0,0,.39-1.19l-0.11,0h-0.11a1,1,0,0,1-.66-0.22,1,1,0,0,1,0-1.36,1,1,0,0,1,.67-0.23,0.91,0.91,0,0,1,.81.41,2,2,0,0,1,.27,1.12,2.83,2.83,0,0,1-.56,1.78,3.4,3.4,0,0,1-1.55,1.1Z" transform="translate(-19.42 -48.17)"/><path class="cls-1" d="M126.09,90.17h1l0.71,3.37c0.06,0.28.11,0.55,0.16,0.82s0.09,0.53.13,0.8h0l0.17-.81q0.08-.4.18-0.81l0.71-3H130l0.72,3c0.06,0.28.12,0.55,0.18,0.82s0.12,0.53.18,0.8h0c0.06-.27.11-0.54,0.15-0.8l0.14-.82,0.71-3.37h0.94L131.83,96h-1.19l-0.7-3c-0.06-.28-0.11-0.56-0.16-0.83s-0.1-.56-0.17-0.86h0l-0.14.79q-0.07.41-.18,0.91L128.58,96H127.4Z" transform="translate(-19.42 -48.17)"/><path class="cls-1" d="M133.92,93.1a3.4,3.4,0,0,1,.23-1.3,2.91,2.91,0,0,1,.63-1,2.65,2.65,0,0,1,.92-0.6,3.06,3.06,0,0,1,2.2,0,2.66,2.66,0,0,1,.92.6,2.91,2.91,0,0,1,.63,1,3.4,3.4,0,0,1,.23,1.3,3.36,3.36,0,0,1-.23,1.29,2.85,2.85,0,0,1-.63,1,2.7,2.7,0,0,1-.92.59,3.07,3.07,0,0,1-2.2,0,2.69,2.69,0,0,1-.92-0.59,2.85,2.85,0,0,1-.63-1A3.36,3.36,0,0,1,133.92,93.1Zm1,0a3,3,0,0,0,.13.91,2.07,2.07,0,0,0,.38.7,1.72,1.72,0,0,0,.59.46,1.87,1.87,0,0,0,1.52,0,1.72,1.72,0,0,0,.59-0.46,2.07,2.07,0,0,0,.38-0.7,3,3,0,0,0,.13-0.91,3,3,0,0,0-.13-0.92,2.13,2.13,0,0,0-.38-0.71,1.69,1.69,0,0,0-.59-0.46A1.87,1.87,0,0,0,136,91a1.69,1.69,0,0,0-.59.46,2.13,2.13,0,0,0-.38.71A3,3,0,0,0,134.94,93.1Z" transform="translate(-19.42 -48.17)"/><path class="cls-1" d="M142.15,90.17H143l0.08,1.38h0a3.52,3.52,0,0,1,1.12-1.12,2.78,2.78,0,0,1,1.48-.41,3.11,3.11,0,0,1,.6.05,2.3,2.3,0,0,1,.55.19l-0.23.85L146.09,91a2.63,2.63,0,0,0-.56,0,2.36,2.36,0,0,0-1.27.38,3.6,3.6,0,0,0-1.13,1.29V96h-1V90.17Z" transform="translate(-19.42 -48.17)"/><path class="cls-1" d="M148.57,87.46h3v6.66a1.21,1.21,0,0,0,.31.93,1.18,1.18,0,0,0,.83.28,2.78,2.78,0,0,0,1.1-.28L154,95.8,153.3,96a3,3,0,0,1-.83.1,1.84,1.84,0,0,1-1.42-.53,2.25,2.25,0,0,1-.49-1.57V88.26h-2v-0.8Z" transform="translate(-19.42 -48.17)"/><path class="cls-1" d="M155.52,93.1a3.49,3.49,0,0,1,.22-1.28,3,3,0,0,1,.59-1,2.58,2.58,0,0,1,.85-0.61,2.4,2.4,0,0,1,1-.22,2.1,2.1,0,0,1,.95.2,4.08,4.08,0,0,1,.82.55l0-1.08V87.46h1V96h-0.82L160,95.23h0a3.51,3.51,0,0,1-.86.64,2.15,2.15,0,0,1-1,.27,2.55,2.55,0,0,1-1-.2,2.23,2.23,0,0,1-.8-0.59,2.68,2.68,0,0,1-.52-1A4.26,4.26,0,0,1,155.52,93.1Zm1,0a2.64,2.64,0,0,0,.45,1.64,1.5,1.5,0,0,0,1.27.59,2.22,2.22,0,0,0,1.64-.88v-2.9a2.62,2.62,0,0,0-.77-0.53,2,2,0,0,0-.76-0.16,1.6,1.6,0,0,0-.71.16,1.74,1.74,0,0,0-.58.46,2.26,2.26,0,0,0-.39.7A2.74,2.74,0,0,0,156.54,93.08Z" transform="translate(-19.42 -48.17)"/><path class="cls-1" d="M164.72,95.21a0.87,0.87,0,0,1,.26-0.67,0.9,0.9,0,0,1,1.24,0,0.88,0.88,0,0,1,.26.67,0.91,0.91,0,0,1-.26.68,0.88,0.88,0,0,1-1.24,0A0.91,0.91,0,0,1,164.72,95.21Zm0.42-6.12,0-1.13h1l0,1.13-0.12,4.13h-0.67Z" transform="translate(-19.42 -48.17)"/><path class="cls-1" d="M170.64,91.64l4.48-3v0.95L171.5,92v0l3.61,2.44v0.95l-4.48-3V91.64Z" transform="translate(-19.42 -48.17)"/><path class="cls-1" d="M178.47,97.92h-0.89l3.94-10.44h0.89Z" transform="translate(-19.42 -48.17)"/><path class="cls-1" d="M185.7,96.49v2h-1V90.17h0.82l0.08,0.74h0a3.62,3.62,0,0,1,.94-0.64,2.49,2.49,0,0,1,1.07-.25,2.44,2.44,0,0,1,1,.21,2.06,2.06,0,0,1,.76.6,2.71,2.71,0,0,1,.46.94,4.49,4.49,0,0,1,.16,1.23,3.78,3.78,0,0,1-.22,1.33,3.05,3.05,0,0,1-.58,1,2.44,2.44,0,0,1-.85.62,2.48,2.48,0,0,1-1,.21,2.3,2.3,0,0,1-.88-0.2,3,3,0,0,1-.87-0.56Zm0-1.86a2.72,2.72,0,0,0,.84.53,2.14,2.14,0,0,0,.72.16,1.6,1.6,0,0,0,1.3-.61,2.61,2.61,0,0,0,.5-1.7,3.74,3.74,0,0,0-.1-0.88,2,2,0,0,0-.29-0.68,1.36,1.36,0,0,0-.51-0.44,1.65,1.65,0,0,0-.74-0.16,1.91,1.91,0,0,0-.82.21,3.35,3.35,0,0,0-.89.67v2.9Z" transform="translate(-19.42 -48.17)"/><path class="cls-1" d="M196.56,92.39l-4.48,3V94.48L195.69,92v0l-3.61-2.44V88.61l4.48,3v0.74Z" transform="translate(-19.42 -48.17)"/><polyline class="cls-2" points="33.58 34.51 33.58 28.17 54.65 28.17 54.65 34.51"/><polyline class="cls-2" points="150.58 34.51 150.58 28.17 176.65 28.17 176.65 34.51"/><polyline class="cls-2" points="58.21 34.51 58.21 28.17 147.28 28.17 147.28 34.51"/><path class="cls-3" d="M25.38,54.25a3.23,3.23,0,0,1-.81,2.34,2.87,2.87,0,0,1-2.17.84,2.86,2.86,0,0,1-2.16-.84,3.25,3.25,0,0,1-.81-2.34V51.85a3.27,3.27,0,0,1,.81-2.35,2.83,2.83,0,0,1,2.16-.85,2.87,2.87,0,0,1,2.17.85,3.24,3.24,0,0,1,.82,2.35v2.39Zm-1.66-2.41a2.34,2.34,0,0,0-.34-1.38,1.15,1.15,0,0,0-1-.47,1.13,1.13,0,0,0-1,.46,2.4,2.4,0,0,0-.33,1.39v2.41a2.38,2.38,0,0,0,.33,1.39,1.28,1.28,0,0,0,2,0,2.35,2.35,0,0,0,.34-1.39V51.84Z" transform="translate(-19.42 -48.17)"/><path class="cls-3" d="M31.32,54.63a3.43,3.43,0,0,1-.55,2,1.79,1.79,0,0,1-1.54.77,1.48,1.48,0,0,1-.69-0.16A1.5,1.5,0,0,1,28,56.82v2.93H26.35V51H27.9L28,51.6A1.72,1.72,0,0,1,28.5,51a1.35,1.35,0,0,1,.72-0.19,1.76,1.76,0,0,1,1.55.82,3.84,3.84,0,0,1,.55,2.17v0.78Zm-1.66-.78a2.89,2.89,0,0,0-.21-1.21,0.69,0.69,0,0,0-.66-0.46,0.79,0.79,0,0,0-.46.13,0.94,0.94,0,0,0-.31.37v3a0.79,0.79,0,0,0,.31.32,1,1,0,0,0,.47.11,0.69,0.69,0,0,0,.67-0.39,2.41,2.41,0,0,0,.2-1.09V53.84Z" transform="translate(-19.42 -48.17)"/><path class="cls-3" d="M34.65,57.43a2.42,2.42,0,0,1-1.9-.79,2.86,2.86,0,0,1-.7-2V53.78a3.27,3.27,0,0,1,.65-2.1,2.18,2.18,0,0,1,1.81-.82,2.1,2.1,0,0,1,1.72.74,3.11,3.11,0,0,1,.61,2v1H33.71v0a1.75,1.75,0,0,0,.28,1,1,1,0,0,0,.86.4A2.29,2.29,0,0,0,35.61,56a4,4,0,0,0,.7-0.35l0.42,1.06a2.51,2.51,0,0,1-.88.52A3.41,3.41,0,0,1,34.65,57.43Zm-0.14-5.25a0.62,0.62,0,0,0-.59.36,2.37,2.37,0,0,0-.21,1h1.49V53.3A1.69,1.69,0,0,0,35,52.47,0.57,0.57,0,0,0,34.51,52.18Z" transform="translate(-19.42 -48.17)"/><path class="cls-3" d="M39.2,51l0.07,0.87a2.11,2.11,0,0,1,.65-0.73,1.55,1.55,0,0,1,2.09.35,3.23,3.23,0,0,1,.45,1.92v3.93H40.8V53.37a1.7,1.7,0,0,0-.18-0.92A0.65,0.65,0,0,0,40,52.18a0.76,0.76,0,0,0-.41.12,1,1,0,0,0-.32.32v4.69H37.65V51H39.2Z" transform="translate(-19.42 -48.17)"/><path class="cls-3" d="M45.25,49.44H43.59V48.17h1.66v1.27Zm0,7.87H43.59V51h1.66v6.34Z" transform="translate(-19.42 -48.17)"/><path class="cls-3" d="M47.94,51L48,51.84a2.11,2.11,0,0,1,.65-0.73,1.55,1.55,0,0,1,2.09.35,3.23,3.23,0,0,1,.45,1.92v3.93H49.53V53.37a1.7,1.7,0,0,0-.18-0.92,0.65,0.65,0,0,0-.57-0.27,0.76,0.76,0,0,0-.41.12,1,1,0,0,0-.32.32v4.69H46.38V51h1.55Z" transform="translate(-19.42 -48.17)"/><path class="cls-3" d="M52,53.85a3.83,3.83,0,0,1,.55-2.17,1.77,1.77,0,0,1,1.56-.83,1.31,1.31,0,0,1,.74.21,1.88,1.88,0,0,1,.56.61L55.55,51H57v6.22a2.64,2.64,0,0,1-.72,2,2.69,2.69,0,0,1-2,.72,3.19,3.19,0,0,1-.87-0.13,4,4,0,0,1-.86-0.35l0.29-1.28a3,3,0,0,0,.68.28,2.86,2.86,0,0,0,.75.09,1,1,0,0,0,.79-0.33,1.52,1.52,0,0,0,.26-1V56.82a1.61,1.61,0,0,1-.53.46,1.44,1.44,0,0,1-.67.16,1.8,1.8,0,0,1-1.55-.77,3.43,3.43,0,0,1-.55-2V53.85Zm1.66,0.78a2.42,2.42,0,0,0,.2,1.08,0.69,0.69,0,0,0,.67.39A0.94,0.94,0,0,0,55,56a0.87,0.87,0,0,0,.33-0.31v-3A1,1,0,0,0,55,52.32a0.78,0.78,0,0,0-.45-0.13,0.69,0.69,0,0,0-.67.46,3,3,0,0,0-.21,1.21v0.78Z" transform="translate(-19.42 -48.17)"/><path class="cls-3" d="M62.68,49.39V51h0.88v1.21H62.68v3.18a1,1,0,0,0,.11.55,0.35,0.35,0,0,0,.3.17h0.26l0.23,0,0.13,1.27a3.32,3.32,0,0,1-.5.12,3.79,3.79,0,0,1-.54,0,1.53,1.53,0,0,1-1.23-.5A2.39,2.39,0,0,1,61,55.36V52.18H60.26V51H61V49.39h1.66Z" transform="translate(-19.42 -48.17)"/><path class="cls-3" d="M67.58,57.31a2.92,2.92,0,0,1-.21-0.73,2,2,0,0,1-.57.62,1.35,1.35,0,0,1-.78.23,1.62,1.62,0,0,1-1.26-.52,2,2,0,0,1-.47-1.38,1.8,1.8,0,0,1,.6-1.45,2.68,2.68,0,0,1,1.78-.52H67.3V53.06a1.27,1.27,0,0,0-.17-0.71,0.56,0.56,0,0,0-.5-0.25,0.48,0.48,0,0,0-.42.2,1,1,0,0,0-.14.58H64.46l0,0a1.74,1.74,0,0,1,.61-1.41,2.42,2.42,0,0,1,1.69-.58,2.26,2.26,0,0,1,1.61.58A2.14,2.14,0,0,1,69,53.07v2.57a5.55,5.55,0,0,0,.06.87,4.76,4.76,0,0,0,.2.8H67.58ZM66.5,56.18A0.86,0.86,0,0,0,67,56a1,1,0,0,0,.34-0.35V54.53H66.67a0.61,0.61,0,0,0-.55.26,1.21,1.21,0,0,0-.17.67,0.85,0.85,0,0,0,.15.52A0.47,0.47,0,0,0,66.5,56.18Z" transform="translate(-19.42 -48.17)"/><path class="cls-3" d="M69.8,53.85a3.83,3.83,0,0,1,.55-2.17,1.77,1.77,0,0,1,1.56-.83,1.31,1.31,0,0,1,.74.21,1.88,1.88,0,0,1,.56.61L73.33,51h1.45v6.22a2.64,2.64,0,0,1-.72,2,2.69,2.69,0,0,1-2,.72,3.19,3.19,0,0,1-.87-0.13,4,4,0,0,1-.86-0.35l0.29-1.28a3,3,0,0,0,.68.28,2.86,2.86,0,0,0,.75.09,1,1,0,0,0,.79-0.33,1.52,1.52,0,0,0,.26-1V56.82a1.61,1.61,0,0,1-.53.46,1.44,1.44,0,0,1-.67.16,1.8,1.8,0,0,1-1.55-.77,3.43,3.43,0,0,1-.55-2V53.85Zm1.66,0.78a2.42,2.42,0,0,0,.2,1.08,0.69,0.69,0,0,0,.67.39A0.94,0.94,0,0,0,72.79,56a0.87,0.87,0,0,0,.33-0.31v-3a1,1,0,0,0-.32-0.36,0.78,0.78,0,0,0-.45-0.13,0.69,0.69,0,0,0-.67.46,3,3,0,0,0-.21,1.21v0.78Z" transform="translate(-19.42 -48.17)"/><path class="cls-3" d="M175.3,54.56l0,0a2.93,2.93,0,0,1-.67,2.12,2.64,2.64,0,0,1-2,.71,2.82,2.82,0,0,1-2.12-.81,3.16,3.16,0,0,1-.79-2.3V51.77a3.24,3.24,0,0,1,.76-2.3,2.67,2.67,0,0,1,2-.82,2.71,2.71,0,0,1,2.05.73,3.08,3.08,0,0,1,.72,2.15l0,0H173.7a2,2,0,0,0-.23-1.21,1.05,1.05,0,0,0-.92-0.37,1,1,0,0,0-.86.44,2.39,2.39,0,0,0-.3,1.33v2.56a2.29,2.29,0,0,0,.32,1.34,1.08,1.08,0,0,0,.93.44,0.94,0.94,0,0,0,.84-0.35,2.08,2.08,0,0,0,.21-1.19h1.61Z" transform="translate(-19.42 -48.17)"/><path class="cls-3" d="M178,57.31H176.3V48.17H178v9.14Z" transform="translate(-19.42 -48.17)"/><path class="cls-3" d="M178.92,53.75a3.15,3.15,0,0,1,.68-2.09,2.62,2.62,0,0,1,3.79,0,3.14,3.14,0,0,1,.68,2.09v0.79a3.13,3.13,0,0,1-.68,2.09,2.64,2.64,0,0,1-3.79,0,3.14,3.14,0,0,1-.68-2.09V53.75Zm1.66,0.78a2.65,2.65,0,0,0,.21,1.15,0.73,0.73,0,0,0,.71.42,0.72,0.72,0,0,0,.7-0.42,2.62,2.62,0,0,0,.21-1.15V53.75a2.62,2.62,0,0,0-.21-1.14,0.8,0.8,0,0,0-1.41,0,2.63,2.63,0,0,0-.21,1.14v0.79Z" transform="translate(-19.42 -48.17)"/><path class="cls-3" d="M187.71,55.65a0.62,0.62,0,0,0-.21-0.47,3.55,3.55,0,0,0-.81-0.48,4.26,4.26,0,0,1-1.43-.81,1.54,1.54,0,0,1-.48-1.17,1.71,1.71,0,0,1,.61-1.32,2.34,2.34,0,0,1,1.62-.55,2.42,2.42,0,0,1,1.68.56,1.77,1.77,0,0,1,.6,1.44l0,0h-1.61a1.09,1.09,0,0,0-.16-0.63A0.57,0.57,0,0,0,187,52a0.63,0.63,0,0,0-.46.18,0.63,0.63,0,0,0,0,.89,3.78,3.78,0,0,0,.81.47,4,4,0,0,1,1.48.81,1.73,1.73,0,0,1-.16,2.55,2.63,2.63,0,0,1-1.69.52,2.34,2.34,0,0,1-1.73-.64,1.89,1.89,0,0,1-.61-1.44v0h1.52a1,1,0,0,0,.23.73,0.83,0.83,0,0,0,.62.22,0.72,0.72,0,0,0,.51-0.16A0.59,0.59,0,0,0,187.71,55.65Z" transform="translate(-19.42 -48.17)"/><path class="cls-3" d="M191.9,49.44h-1.66V48.17h1.66v1.27Zm0,7.87h-1.66V51h1.66v6.34Z" transform="translate(-19.42 -48.17)"/><path class="cls-3" d="M194.58,51l0.07,0.87a2.11,2.11,0,0,1,.65-0.73,1.55,1.55,0,0,1,2.09.35,3.23,3.23,0,0,1,.45,1.92v3.93h-1.67V53.37a1.7,1.7,0,0,0-.18-0.92,0.65,0.65,0,0,0-.57-0.27,0.76,0.76,0,0,0-.41.12,1,1,0,0,0-.32.32v4.69H193V51h1.55Z" transform="translate(-19.42 -48.17)"/><path class="cls-3" d="M198.66,53.85a3.83,3.83,0,0,1,.55-2.17,1.77,1.77,0,0,1,1.56-.83,1.31,1.31,0,0,1,.74.21,1.88,1.88,0,0,1,.56.61l0.11-.71h1.45v6.22a2.64,2.64,0,0,1-.72,2,2.69,2.69,0,0,1-2,.72,3.19,3.19,0,0,1-.87-0.13,4,4,0,0,1-.86-0.35l0.29-1.28a3,3,0,0,0,.68.28,2.86,2.86,0,0,0,.75.09,1,1,0,0,0,.79-0.33,1.52,1.52,0,0,0,.26-1V56.82a1.61,1.61,0,0,1-.53.46,1.44,1.44,0,0,1-.67.16,1.8,1.8,0,0,1-1.55-.77,3.43,3.43,0,0,1-.55-2V53.85Zm1.66,0.78a2.42,2.42,0,0,0,.2,1.08,0.69,0.69,0,0,0,.67.39,0.94,0.94,0,0,0,.45-0.11,0.87,0.87,0,0,0,.33-0.31v-3a1,1,0,0,0-.32-0.36,0.78,0.78,0,0,0-.45-0.13,0.69,0.69,0,0,0-.67.46,3,3,0,0,0-.21,1.21v0.78Z" transform="translate(-19.42 -48.17)"/><path class="cls-3" d="M209.32,49.39V51h0.88v1.21h-0.88v3.18a1,1,0,0,0,.11.55,0.35,0.35,0,0,0,.3.17H210l0.23,0,0.13,1.27a3.32,3.32,0,0,1-.5.12,3.79,3.79,0,0,1-.54,0,1.53,1.53,0,0,1-1.23-.5,2.39,2.39,0,0,1-.42-1.57V52.18h-0.75V51h0.75V49.39h1.66Z" transform="translate(-19.42 -48.17)"/><path class="cls-3" d="M214.23,57.31a2.92,2.92,0,0,1-.21-0.73,2,2,0,0,1-.57.62,1.35,1.35,0,0,1-.78.23,1.62,1.62,0,0,1-1.26-.52,2,2,0,0,1-.47-1.38,1.8,1.8,0,0,1,.6-1.45,2.68,2.68,0,0,1,1.78-.52h0.63V53.06a1.27,1.27,0,0,0-.17-0.71,0.56,0.56,0,0,0-.5-0.25,0.48,0.48,0,0,0-.42.2,1,1,0,0,0-.14.58H211.1l0,0a1.74,1.74,0,0,1,.61-1.41,2.42,2.42,0,0,1,1.69-.58,2.26,2.26,0,0,1,1.61.58,2.14,2.14,0,0,1,.62,1.64v2.57a5.55,5.55,0,0,0,.06.87,4.76,4.76,0,0,0,.2.8h-1.65Zm-1.08-1.13a0.86,0.86,0,0,0,.47-0.13,1,1,0,0,0,.34-0.35V54.53h-0.63a0.61,0.61,0,0,0-.55.26,1.21,1.21,0,0,0-.17.67,0.85,0.85,0,0,0,.15.52A0.47,0.47,0,0,0,213.14,56.18Z" transform="translate(-19.42 -48.17)"/><path class="cls-3" d="M216.45,53.85a3.83,3.83,0,0,1,.55-2.17,1.77,1.77,0,0,1,1.56-.83,1.31,1.31,0,0,1,.74.21,1.88,1.88,0,0,1,.56.61L220,51h1.45v6.22a2.64,2.64,0,0,1-.72,2,2.69,2.69,0,0,1-2,.72,3.19,3.19,0,0,1-.87-0.13,4,4,0,0,1-.86-0.35l0.29-1.28a3,3,0,0,0,.68.28,2.86,2.86,0,0,0,.75.09,1,1,0,0,0,.79-0.33,1.52,1.52,0,0,0,.26-1V56.82a1.61,1.61,0,0,1-.53.46,1.44,1.44,0,0,1-.67.16,1.8,1.8,0,0,1-1.55-.77,3.43,3.43,0,0,1-.55-2V53.85Zm1.66,0.78a2.42,2.42,0,0,0,.2,1.08,0.69,0.69,0,0,0,.67.39,0.94,0.94,0,0,0,.45-0.11,0.87,0.87,0,0,0,.33-0.31v-3a1,1,0,0,0-.32-0.36,0.78,0.78,0,0,0-.45-0.13,0.69,0.69,0,0,0-.67.46,3,3,0,0,0-.21,1.21v0.78Z" transform="translate(-19.42 -48.17)"/><path class="cls-3" d="M109.18,54.56l0,0a2.93,2.93,0,0,1-.67,2.12,2.64,2.64,0,0,1-2,.71,2.82,2.82,0,0,1-2.12-.81,3.16,3.16,0,0,1-.79-2.3V51.77a3.24,3.24,0,0,1,.76-2.3,2.67,2.67,0,0,1,2-.82,2.71,2.71,0,0,1,2.05.73,3.08,3.08,0,0,1,.72,2.15l0,0h-1.61a2,2,0,0,0-.23-1.21,1.05,1.05,0,0,0-.92-0.37,1,1,0,0,0-.86.44,2.39,2.39,0,0,0-.3,1.33v2.56a2.29,2.29,0,0,0,.32,1.34,1.08,1.08,0,0,0,.93.44,0.94,0.94,0,0,0,.84-0.35,2.08,2.08,0,0,0,.21-1.19h1.61Z" transform="translate(-19.42 -48.17)"/><path class="cls-3" d="M109.9,53.75a3.15,3.15,0,0,1,.68-2.09,2.62,2.62,0,0,1,3.79,0,3.14,3.14,0,0,1,.68,2.09v0.79a3.13,3.13,0,0,1-.68,2.09,2.64,2.64,0,0,1-3.79,0,3.14,3.14,0,0,1-.68-2.09V53.75Zm1.66,0.78a2.65,2.65,0,0,0,.21,1.15,0.73,0.73,0,0,0,.71.42,0.72,0.72,0,0,0,.7-0.42,2.62,2.62,0,0,0,.21-1.15V53.75a2.62,2.62,0,0,0-.21-1.14,0.8,0.8,0,0,0-1.41,0,2.63,2.63,0,0,0-.21,1.14v0.79Z" transform="translate(-19.42 -48.17)"/><path class="cls-3" d="M117.46,51l0.07,0.87a2.11,2.11,0,0,1,.65-0.73,1.55,1.55,0,0,1,2.09.35,3.23,3.23,0,0,1,.45,1.92v3.93H119V53.37a1.7,1.7,0,0,0-.18-0.92,0.65,0.65,0,0,0-.57-0.27,0.76,0.76,0,0,0-.41.12,1,1,0,0,0-.32.32v4.69H115.9V51h1.55Z" transform="translate(-19.42 -48.17)"/><path class="cls-3" d="M123.74,49.39V51h0.88v1.21h-0.88v3.18a1,1,0,0,0,.11.55,0.35,0.35,0,0,0,.3.17h0.26l0.23,0,0.13,1.27a3.32,3.32,0,0,1-.5.12,3.79,3.79,0,0,1-.54,0,1.53,1.53,0,0,1-1.23-.5,2.39,2.39,0,0,1-.42-1.57V52.18h-0.75V51h0.75V49.39h1.66Z" transform="translate(-19.42 -48.17)"/><path class="cls-3" d="M128,57.43a2.42,2.42,0,0,1-1.9-.79,2.86,2.86,0,0,1-.7-2V53.78a3.27,3.27,0,0,1,.65-2.1,2.18,2.18,0,0,1,1.81-.82,2.1,2.1,0,0,1,1.72.74,3.11,3.11,0,0,1,.61,2v1h-3.13v0a1.75,1.75,0,0,0,.28,1,1,1,0,0,0,.86.4A2.29,2.29,0,0,0,129,56a4,4,0,0,0,.7-0.35l0.42,1.06a2.51,2.51,0,0,1-.88.52A3.41,3.41,0,0,1,128,57.43Zm-0.14-5.25a0.62,0.62,0,0,0-.59.36,2.37,2.37,0,0,0-.21,1h1.49V53.3a1.69,1.69,0,0,0-.16-0.82A0.57,0.57,0,0,0,127.88,52.18Z" transform="translate(-19.42 -48.17)"/><path class="cls-3" d="M132.58,51l0.07,0.87a2.11,2.11,0,0,1,.65-0.73,1.55,1.55,0,0,1,2.09.35,3.23,3.23,0,0,1,.45,1.92v3.93h-1.67V53.37a1.7,1.7,0,0,0-.18-0.92,0.65,0.65,0,0,0-.57-0.27,0.76,0.76,0,0,0-.41.12,1,1,0,0,0-.32.32v4.69H131V51h1.55Z" transform="translate(-19.42 -48.17)"/><path class="cls-3" d="M138.87,49.39V51h0.88v1.21h-0.88v3.18a1,1,0,0,0,.11.55,0.35,0.35,0,0,0,.3.17h0.26l0.23,0,0.13,1.27a3.32,3.32,0,0,1-.5.12,3.79,3.79,0,0,1-.54,0,1.53,1.53,0,0,1-1.23-.5,2.39,2.39,0,0,1-.42-1.57V52.18h-0.75V51h0.75V49.39h1.66Z" transform="translate(-19.42 -48.17)"/><line class="cls-2" x1="102.25" y1="28.17" x2="102.25" y2="13.16"/><line class="cls-2" x1="44.11" y1="28.17" x2="33.58" y2="13.16"/><line class="cls-2" x1="163.61" y1="28.17" x2="176.65" y2="13.16"/></svg>